<?xml version="1.0" encoding="iso-8859-1"?>
<!-- Generator: Adobe Illustrator 19.0.0, SVG Export Plug-In . SVG Version: 6.00 Build 0)  -->
<svg xmlns="http://www.w3.org/2000/svg" xmlns:xlink="http://www.w3.org/1999/xlink" version="1.1" id="Capa_1" x="0px" y="0px" viewBox="0 0 511.998 511.998" style="enable-background:new 0 0 511.998 511.998;" xml:space="preserve" width="512px" height="512px">
<g>
	<g>
		<path d="M357.69,409.572l-15.961-7.224l-51.458-32.663c-2.589-1.644-4.018-4.644-3.641-7.643    c2.326-18.499-1.901-37.07-7.656-47.814c0.297-1.734,0.819-5.168,0.902-6.826c7.728-13.049,8.531-19.648,11.631-26.476    c0.797-1.75,1.469-3.716,1.943-5.685c0.971-4.026-1.506-8.079-5.533-9.05c-4.027-0.971-8.079,1.506-9.05,5.533    c-0.781,3.234-1.647,3.537-4.283,11.516c-8.879,26.875-32.599,46.351-39.657,51.68c-5.982,4.516-7.185,8.825-16.088,21.997    c-5.344,8.304-17.545,6.455-18.987-0.191c-0.71-3.272,1.26-5.33,1.296-5.43c3.097-3.967,3.556-9.393,1.171-13.819    c-0.291-0.538-0.072-0.159,15.147-8.906c5.871-3.31,0.507-0.18,39.315-57.421c4.619-6.813-4.413-8.956-6.119-45.28l25.258-2.198    c1.397,4.384,2.372,9.575,2.907,15.501c0.372,4.126,4.033,7.169,8.145,6.796c4.126-0.372,7.169-4.019,6.796-8.145    c-0.639-7.076-1.864-13.388-3.634-18.887c2.451-2.658,3.832-6.288,3.494-10.166l-1.722-19.79    c-1.016-11.673-8.185-21.359-18.095-26.169c-9.688-14.382-6.926-31.078-5.797-36.041c22.843-25.047,32.464-48.783,28.581-70.574    c-4.712-26.435-27.731-40.052-31.861-42.301c-2.523-1.802-13.327-9.045-28.153-12.296c-15.719-3.449-39.005-3-60.695,18.689    c-14.56,14.56-15.856,30.9-1.45,44.924c-2.856,10.4-3.32,21.188-3.389,25.231l-5.813,13.742c-1.339,3.165-1.259,6.759,0.219,9.862    c3.971,8.333,13.323,6.489,13.71,8.555c3.221,17.297,12.609,28.295,25.759,30.173c8.861,1.266,12.073,11.366,13.184,17.019    c-3.868,3.312-7.013,7.352-9.332,12.089c-10.438,21.326-20.499,74.121-12.153,115.442l-15.539,34.477    c-12.336,27.371-5.365,48.524-5.204,69.169c0.271,3.958,3.566,6.987,7.476,6.987c4.369,0,7.786-3.694,7.49-8.014    c-2.05-30.373-2.047-28.943-2.122-32.102c9.26,12.929,32.17,13.61,42.737-2.811l9.779-15.194    c2.311-3.587,4.584-3.367,15.862-14.166c-3.889,9.009-9.647,18.516-18.137,26.013c-5.029,4.44-7.914,10.936-7.914,17.819    c0,12.862,0,54.75,0,76.609h-36.357l-1.45-21.165c-0.284-4.133-3.865-7.251-7.996-6.971c-4.133,0.283-7.253,3.862-6.97,7.996    l1.514,22.097c-16.988,5.698-30.526,17.775-35.343,31.967c-3.918,11.551,5.945,23.309,18.79,21.836    c75.512-0.374,70.844-0.321,71.4-0.37c8.949-0.765,13.377-8.179,12.952-17.092l-1.537-30.99v-46.56l51.282,33.46    c2.053,1.339,4.274,2.22,6.545,2.68c2.403,24.056,19.909,56.942,40.796,46.458c5.274-2.646,8.805-7.652,9.542-13.475    c10.457-42.493,13.92-56.465,13.996-56.954C369.468,420.95,365.144,412.948,357.69,409.572z M270.887,178.667    c3.521,2.956,5.677,7.081,6.071,11.615l1.576,18.103c-15.179,1.321-22.862,1.99-33.045,2.877l-1.672-19.208    C242.563,177.643,259.491,169.094,270.887,178.667z M186.488,30.899c32.145-32.143,68.193-5.797,69.736-4.64    c0.354,0.268,0.732,0.503,1.129,0.703c0.207,0.105,20.697,10.705,24.47,31.868c2.73,15.317-3.828,32.659-19.508,51.647    l-4.366-7.167c-0.13-3.952,3.341-13.063-3.994-21.084c-7.482-8.18-17.199-5.284-21.943-5.854    c-18.6-4.527-48.563-16.359-52.361-29.726C179.162,44.93,177.679,39.709,186.488,30.899z M207.037,137.927    c-8.731-1.247-11.976-11.855-13.133-18.069c-2.078-11.147-13.271-12.804-13.536-12.954l5.072-11.991    c1.34-3.169-0.22-7.042,2.147-19.954c16.068,9.408,40.553,16.479,43.564,16.416c4.336-0.01,8.19-0.019,9.47-0.022    c1.802,0,3.221,1.548,3.055,3.351c-0.425,8.239-1.897,10.9,0.172,14.294l9.336,15.321c-1.352,6.33-3.231,20.383,2.172,35.105    c-7.919-0.59-16.263,0.217-23.691,2.755C227.98,149.603,220.064,139.788,207.037,137.927z M222.242,188.48    c1.988-4.063,4.953-7.277,8.86-9.619c-4.537,10.977-1.16,18.573-0.283,36.841c0.283,3.255,1.867,6.337,4.75,8.484    c0.272,8.509,1.485,25.817,6.677,41.677c-3.325,4.927-10.013,14.874-16.58,24.861c-0.598-0.043,2.269-0.01-15.03-0.027    C204.476,254.437,212.844,207.684,222.242,188.48z M209.299,305.695h6.669c-2.542,4.012-4.674,7.482-6.039,9.902l-6.829,3.853    L209.299,305.695z M232.499,496.538c-74.208,0.385-69.854,0.273-70.851,0.416c-1.66,0.249-3.425-0.849-3.004-2.093    c4.184-12.324,17.898-20.727,29.928-23.744h42.834C232.457,494.187,232.736,494.598,232.499,496.538z M305.524,437.76    l-59.48-38.81c0.703-16.595-1.815-21.909,2.841-26.019c10.871-9.598,17.965-21.624,22.588-32.737    c0.871,5.726,1.213,12.502,0.274,19.974c-1.098,8.732,3.017,17.437,10.484,22.179l45.464,28.859l-16.756,25.429    C309.756,438.431,307.329,438.938,305.524,437.76z M353.412,426.491c-14.701,59.823-13.977,56.443-14.073,57.507    c-0.172,1.905-2.278,2.964-3.937,1.944c-9.417-5.775-15.595-22.268-16.726-36.085c4.941-3.523,5.232-6.323,22.222-31.418    l10.608,4.801C352.766,423.81,353.527,425.126,353.412,426.491z" fill="#f164ab"/>
	</g>
</g>
<g>
</g>
<g>
</g>
<g>
</g>
<g>
</g>
<g>
</g>
<g>
</g>
<g>
</g>
<g>
</g>
<g>
</g>
<g>
</g>
<g>
</g>
<g>
</g>
<g>
</g>
<g>
</g>
<g>
</g>
</svg>
