<?xml version="1.0" encoding="iso-8859-1"?>
<!-- Generator: Adobe Illustrator 19.0.0, SVG Export Plug-In . SVG Version: 6.00 Build 0)  -->
<svg xmlns="http://www.w3.org/2000/svg" xmlns:xlink="http://www.w3.org/1999/xlink" version="1.1" id="Capa_1" x="0px" y="0px" viewBox="0 0 440.8 440.8" style="enable-background:new 0 0 440.8 440.8;" xml:space="preserve" width="512px" height="512px">
<g>
	<g>
		<path d="M220.4,0c-57.6,0-104.8,47.2-104.8,104.8c0,55.2,43.2,100.8,97.6,104v172c0,4,3.2,6.4,7.2,6.4s7.2-3.2,7.2-6.4V209.6    c54.4-3.2,97.6-48.8,97.6-104C325.2,47.2,278,0,220.4,0z M220.4,196c-50.4,0-91.2-40.8-91.2-91.2c0-50.4,40.8-91.2,91.2-91.2    c50.4,0,91.2,40.8,91.2,91.2C311.6,155.2,270.8,196,220.4,196z" fill="#FFFFFF"/>
	</g>
</g>
<g>
	<g>
		<path d="M262.8,328.8c-3.2-0.8-7.2,0.8-8.8,4.8c-0.8,3.2,0.8,7.2,4.8,8.8c25.6,8,41.6,23.2,41.6,40c0,24.8-36.8,45.6-80,45.6    s-80-20.8-80-45.6c0-16,15.2-31.2,40.8-40c3.2-0.8,5.6-4.8,4-8.8c-0.8-3.2-4.8-5.6-8.8-4c-30.4,10.4-49.6,30.4-49.6,52    c0,32.8,41.6,59.2,93.6,59.2s93.6-25.6,93.6-59.2C314,359.2,294.8,339.2,262.8,328.8z" fill="#FFFFFF"/>
	</g>
</g>
<g>
	<g>
		<path d="M225.2,35.2c-0.8,0-72.8,4.8-76.8,73.6c0,4,2.4,7.2,6.4,7.2c0,0,0,0,0.8,0c3.2,0,6.4-2.4,6.4-6.4    c4-56.8,61.6-60.8,64-60.8c4,0,6.4-3.2,6.4-7.2S229.2,35.2,225.2,35.2z" fill="#FFFFFF"/>
	</g>
</g>
<g>
</g>
<g>
</g>
<g>
</g>
<g>
</g>
<g>
</g>
<g>
</g>
<g>
</g>
<g>
</g>
<g>
</g>
<g>
</g>
<g>
</g>
<g>
</g>
<g>
</g>
<g>
</g>
<g>
</g>
</svg>
