<?xml version="1.0" encoding="iso-8859-1"?>
<!-- Generator: Adobe Illustrator 19.0.0, SVG Export Plug-In . SVG Version: 6.00 Build 0)  -->
<svg xmlns="http://www.w3.org/2000/svg" xmlns:xlink="http://www.w3.org/1999/xlink" version="1.1" id="Layer_1" x="0px" y="0px" viewBox="0 0 512.003 512.003" style="enable-background:new 0 0 512.003 512.003;" xml:space="preserve" width="512px" height="512px">
<g>
	<g>
		<g>
			<path d="M191.726,303.746l-14.123-123.904c-3.349-29.547-26.752-51.819-54.379-51.819c-4.245,0-8.064,2.517-9.771,6.4     l-17.941,41.024l-16.917-40.853c-1.643-3.989-5.547-6.592-9.856-6.592c-27.627,0-51.008,22.272-54.379,51.819L0.238,303.724     c-1.173,10.368,2.027,20.651,8.768,28.203c5.824,6.507,13.525,10.304,21.909,10.773l11.776,159.424     c0.427,5.568,5.056,9.877,10.645,9.877h85.333c5.589,0,10.219-4.309,10.603-9.856l11.776-159.424     c8.384-0.469,16.107-4.245,21.909-10.773C189.721,324.396,192.921,314.114,191.726,303.746z M167.065,317.74     c-2.112,2.368-4.907,3.691-7.808,3.691h-8.085c-5.589,0-10.24,4.309-10.645,9.877l-11.776,159.36H63.235l-11.755-159.36     c-0.427-5.568-5.056-9.877-10.645-9.877H32.75c-2.901,0-5.675-1.301-7.808-3.691c-2.709-3.029-3.989-7.253-3.499-11.584     l14.123-123.904c1.835-16.149,12.693-28.885,26.389-32.107l23.445,56.619c1.643,3.947,5.461,6.549,9.749,6.592     c3.392,0.533,8.149-2.475,9.877-6.4l24.853-56.853c13.781,3.157,24.704,15.936,26.56,32.149l14.123,123.904     C171.054,310.487,169.774,314.711,167.065,317.74z" fill="#FFFFFF"/>
			<path d="M225.326,436.332c-5.419-2.347-11.669,0.064-14.08,5.44c-6.016,13.632-12.693,23.424-20.992,30.869     c-4.395,3.947-4.757,10.667-0.832,15.061c2.133,2.368,5.035,3.563,7.957,3.563c2.56,0,5.099-0.896,7.104-2.709     c10.496-9.387,19.093-21.867,26.283-38.144C233.155,445.015,230.702,438.722,225.326,436.332z" fill="#FFFFFF"/>
			<path d="M96.003,106.668c29.397,0,53.333-23.936,53.333-53.333S125.401,0.002,96.003,0.002S42.67,23.938,42.67,53.335     S66.606,106.668,96.003,106.668z M96.003,21.335c17.643,0,32,14.357,32,32c0,17.643-14.357,32-32,32c-17.643,0-32-14.357-32-32     C64.003,35.692,78.361,21.335,96.003,21.335z" fill="#FFFFFF"/>
			<path d="M416.003,42.668c-29.397,0-53.333,23.936-53.333,53.333s23.936,53.333,53.333,53.333s53.333-23.936,53.333-53.333     S445.401,42.668,416.003,42.668z M416.003,128.002c-17.643,0-32-14.357-32-32c0-17.643,14.357-32,32-32c17.643,0,32,14.357,32,32     C448.003,113.644,433.646,128.002,416.003,128.002z" fill="#FFFFFF"/>
			<path d="M416.003,0.002c-52.928,0-96,43.072-96,96c0,48.619,77.909,182.336,86.805,197.419c1.92,3.243,5.419,5.248,9.195,5.248     s7.275-2.005,9.195-5.248c8.875-15.083,86.805-148.8,86.805-197.419C512.003,43.074,468.932,0.002,416.003,0.002z      M416.003,266.647c-27.051-47.723-74.667-138.475-74.667-170.645c0-41.173,33.493-74.667,74.667-74.667     s74.667,33.493,74.667,74.667C490.67,128.172,443.054,218.924,416.003,266.647z" fill="#FFFFFF"/>
			<path d="M362.137,277.356c-7.957,0.405-15.403,1.173-22.379,2.261c-5.824,0.917-9.813,6.4-8.896,12.203     c0.832,5.248,5.376,9.003,10.539,9.003c0.555,0,1.109-0.043,1.643-0.128c6.272-0.981,12.971-1.664,20.139-2.027     c5.888-0.277,10.411-5.291,10.133-11.179S368.11,277.015,362.137,277.356z" fill="#FFFFFF"/>
			<path d="M252.121,356.29c-5.419-2.219-11.669,0.469-13.845,5.952c-5.056,12.672-9.024,25.813-12.864,38.507l-0.725,2.432     c-1.707,5.632,1.472,11.584,7.125,13.291c1.024,0.299,2.069,0.448,3.093,0.448c4.587,0,8.811-2.965,10.176-7.573l0.725-2.411     c3.712-12.288,7.552-24.981,12.267-36.8C260.27,364.674,257.603,358.466,252.121,356.29z" fill="#FFFFFF"/>
			<path d="M295.897,293.378c-14.101,7.296-25.771,16.939-35.691,29.419c-3.648,4.629-2.88,11.328,1.728,14.997     c1.984,1.536,4.309,2.304,6.635,2.304c3.157,0,6.272-1.387,8.341-4.032c8.021-10.091,17.429-17.856,28.8-23.744     c5.227-2.709,7.275-9.152,4.565-14.379C307.545,292.716,301.123,290.626,295.897,293.378z" fill="#FFFFFF"/>
		</g>
	</g>
</g>
<g>
</g>
<g>
</g>
<g>
</g>
<g>
</g>
<g>
</g>
<g>
</g>
<g>
</g>
<g>
</g>
<g>
</g>
<g>
</g>
<g>
</g>
<g>
</g>
<g>
</g>
<g>
</g>
<g>
</g>
</svg>
