<?xml version="1.0" encoding="iso-8859-1"?>
<!-- Generator: Adobe Illustrator 19.0.0, SVG Export Plug-In . SVG Version: 6.00 Build 0)  -->
<svg xmlns="http://www.w3.org/2000/svg" xmlns:xlink="http://www.w3.org/1999/xlink" version="1.1" id="Capa_1" x="0px" y="0px" viewBox="0 0 512.073 512.073" style="enable-background:new 0 0 512.073 512.073;" xml:space="preserve" width="512px" height="512px">
<g>
	<g>
		<path d="M480.037,296.073h-48v-96c0.014-1.238-0.26-2.462-0.8-3.576l-8-16c-0.852-1.685-2.267-3.018-4-3.768l-53.12-22.976    l-4.274-13.254c13.838-11.186,22.194-29.741,22.194-52.426v-16v-48c0-2.122-0.844-4.156-2.344-5.656    C366.749,5.775,347.592-0.774,328.037,0.073c-19.555-0.848-38.712,5.702-53.656,18.344c-1.5,1.5-2.344,3.534-2.344,5.656v48v16    c0,22.678,8.351,41.229,22.182,52.416l-4.278,13.264l-53.064,22.976c-1.733,0.75-3.148,2.083-4,3.768l-8,16    c-0.554,1.111-0.841,2.335-0.84,3.576v96h-48v-24c0-4.418-3.582-8-8-8h-8v-24c0-4.418-3.582-8-8-8h-16v-76.688l11.312-11.312    h6.059c3.295,9.32,12.18,16,22.629,16h16c13.255,0,24-10.745,24-24s-10.745-24-24-24h-16c-10.449,0-19.334,6.68-22.629,16h-9.371    c-2.122,0-4.156,0.844-5.656,2.344l-16,16c-1.5,1.5-2.344,3.534-2.344,5.656v80h-16c-4.418,0-8,3.582-8,8v24h-8    c-4.418,0-8,3.582-8,8v24h-48h-32v16h24v40c0,4.418,3.582,8,8,8h16v24v128h16v-80h72v-16h-72v-24h384v24h-72v16h72v80h16v-128v-24    h16c4.418,0,8-3.582,8-8v-40h24v-16H480.037z M176.037,128.073h16c4.418,0,8,3.582,8,8c0,4.418-3.582,8-8,8h-16    c-4.418,0-8-3.582-8-8C168.037,131.655,171.618,128.073,176.037,128.073z M288.037,27.801c11.728-8.102,25.753-12.214,40-11.728    c14.247-0.486,28.271,3.626,40,11.728v35.117c-4-1.052-8-3.053-8-6.845c0-4.418-3.582-8-8-8h-48c-4.418,0-8,3.582-8,8    c0,3.792-4,5.792-8,6.845V27.801z M288.037,88.073v-8.752c9.619-0.916,18.113-6.661,22.544-15.248h34.912    c4.431,8.587,12.925,14.332,22.544,15.248v8.752c0,22.144-10.48,48-40,48C298.517,136.073,288.037,110.217,288.037,88.073z     M350.726,158.073l-22.688,22.688l-22.695-22.695l3.051-9.463c6.009,2.259,12.596,3.47,19.643,3.47    c7.042,0,13.626-1.21,19.634-3.466L350.726,158.073z M240.037,201.961l5.84-11.712l48.17-20.854l25.99,25.99v28.688h16v-28.688    l25.987-25.987l48.165,20.851l5.848,11.712v94.112h-24v-40h-16v40h-96v-40h-16v40h-24V201.961z M112.037,248.073h32v16h-32    V248.073z M96.037,280.073h8h48h8v16h-64V280.073z M472.037,344.073h-16c-4.418,0-8,3.582-8,8v24h-384v-16h336v-16h-344h-16v-32    h48h80h304V344.073z" fill="#FFFFFF"/>
	</g>
</g>
<g>
	<g>
		<rect x="416.04" y="344.07" width="16" height="16" fill="#FFFFFF"/>
	</g>
</g>
<g>
	<g>
		<path d="M344.037,416.073h-176c-4.418,0-8,3.582-8,8v64c0,4.418,3.582,8,8,8h176c4.418,0,8-3.582,8-8v-64    C352.037,419.655,348.455,416.073,344.037,416.073z M336.037,480.073h-160v-48h160V480.073z" fill="#FFFFFF"/>
	</g>
</g>
<g>
</g>
<g>
</g>
<g>
</g>
<g>
</g>
<g>
</g>
<g>
</g>
<g>
</g>
<g>
</g>
<g>
</g>
<g>
</g>
<g>
</g>
<g>
</g>
<g>
</g>
<g>
</g>
<g>
</g>
</svg>
