<?xml version="1.0" encoding="iso-8859-1"?>
<!-- Generator: Adobe Illustrator 19.0.0, SVG Export Plug-In . SVG Version: 6.00 Build 0)  -->
<svg xmlns="http://www.w3.org/2000/svg" xmlns:xlink="http://www.w3.org/1999/xlink" version="1.1" id="Capa_1" x="0px" y="0px" viewBox="0 0 512 512" style="enable-background:new 0 0 512 512;" xml:space="preserve" width="512px" height="512px">
<g>
	<g>
		<path d="M286.228,122.009h-59.915c-48.052,0-87.149,39.097-87.149,87.149v87.694c0,9.025,7.315,16.34,16.34,16.34h47.932v-32.681    h-31.591v-71.353c0-30.034,24.434-54.468,54.468-54.468h59.915c30.034,0,54.468,24.434,54.468,54.468v71.353h-35.404v32.681    h51.745c9.031,0,16.34-7.315,16.34-16.34v-87.694C373.376,161.106,334.279,122.009,286.228,122.009z" fill="#e1b237"/>
	</g>
</g>
<g>
	<g>
		<path d="M239.935,330.077v109.481h-17.974V193.362H189.28v262.536c0,9.025,7.315,16.34,16.34,16.34h50.655    c9.025,0,16.34-7.315,16.34-16.34V330.077H239.935z" fill="#e1b237"/>
	</g>
</g>
<g>
	<g>
		<path d="M290.596,193.362v246.196h-17.98V330.077h-32.681v125.821c0,9.025,7.315,16.34,16.34,16.34h50.655    c9.025,0,16.34-7.315,16.346-16.34V193.362H290.596z" fill="#e1b237"/>
	</g>
</g>
<g>
	<g>
		<path d="M256.275,0c-31.837,0-57.736,25.9-57.736,57.736c0,31.837,25.9,57.736,57.736,57.736s57.736-25.9,57.736-57.736    C314.012,25.9,288.112,0,256.275,0z M256.275,82.791c-13.819,0-25.055-11.237-25.055-25.055c0-13.819,11.237-25.055,25.055-25.055    c13.819,0,25.055,11.237,25.055,25.055C281.331,71.555,270.094,82.791,256.275,82.791z" fill="#e1b237"/>
	</g>
</g>
<g>
	<g>
		<path d="M311.942,367.164l-2.413,32.594c94.764,7.01,136.11,30.241,137.385,38.95c-1.825,12.141-68.897,40.611-190.638,40.611    c-122.564,0-189.565-28.656-191.183-40.851c0.31-8.279,42.109-32.125,139.003-39.261l-2.397-32.594    c-39.713,2.925-169.287,16.749-169.287,71.854c0,50.519,116.044,73.532,223.864,73.532c100.455,0,183.47-18.421,211.478-46.924    c9.984-10.158,11.945-20.229,11.83-26.602C479.584,383.826,351.268,370.078,311.942,367.164z" fill="#e1b237"/>
	</g>
</g>
<g>
</g>
<g>
</g>
<g>
</g>
<g>
</g>
<g>
</g>
<g>
</g>
<g>
</g>
<g>
</g>
<g>
</g>
<g>
</g>
<g>
</g>
<g>
</g>
<g>
</g>
<g>
</g>
<g>
</g>
</svg>
