<?xml version="1.0" encoding="utf-8"?>
<!-- Generator: Adobe Illustrator 16.0.0, SVG Export Plug-In . SVG Version: 6.00 Build 0)  -->
<!DOCTYPE svg PUBLIC "-//W3C//DTD SVG 1.1 Tiny//EN" "http://www.w3.org/Graphics/SVG/1.1/DTD/svg11-tiny.dtd">
<svg version="1.1" baseProfile="tiny" id="Layer_1" xmlns="http://www.w3.org/2000/svg" xmlns:xlink="http://www.w3.org/1999/xlink"
	 x="0px" y="0px" width="24px" height="24px" viewBox="0 0 24 24" xml:space="preserve">
<g>
	<path d="M16.643,14.52c-0.578-0.73-1.055-1.097-1.498-1.149c-0.398-0.057-0.768,0.203-1.124,0.449l-0.351,0.22
		c-0.032,0.016-0.064,0.029-0.092,0.037c-0.191,0.055-0.647,0.07-0.877-0.141c-0.35-0.32-0.894-0.907-1.314-1.416
		c-0.404-0.53-0.848-1.192-1.081-1.611c-0.157-0.282-0.014-0.706,0.075-0.854c0.015-0.024,0.035-0.048,0.056-0.071l0.315-0.292
		c0.003-0.003,0.004-0.007,0.007-0.01s0.008-0.002,0.011-0.005c0.304-0.257,0.648-0.547,0.699-0.945
		c0.056-0.441-0.188-0.988-0.767-1.72l-0.067-0.086C10.297,6.493,9.73,5.768,8.898,5.891c-0.312,0.047-0.59,0.152-0.875,0.332
		C8.021,6.225,8.021,6.229,8.018,6.23C8.012,6.234,8.005,6.235,8,6.239l-0.365,0.27c-0.005,0.004-0.008,0.01-0.013,0.014
		C7.619,6.525,7.616,6.524,7.613,6.526L7.475,6.645c-0.397,0.354-1.259,1.381-0.68,3.259c0.347,1.123,1.045,2.423,2.028,3.775
		l-0.012,0.01l0.813,1.023l0.011-0.01c1.086,1.261,2.189,2.239,3.206,2.843c0.728,0.432,1.367,0.575,1.896,0.575
		c0.705,0,1.212-0.255,1.467-0.42l0.148-0.099l-0.005-0.008l0.38-0.286c0.007-0.006,0.011-0.014,0.018-0.02
		c0.003-0.003,0.009-0.002,0.012-0.005c0.251-0.23,0.425-0.471,0.546-0.756c0.331-0.772-0.247-1.493-0.592-1.924L16.643,14.52z
		 M13.249,16.857c-1.021-0.606-2.149-1.636-3.261-2.977l-0.3-0.378c-1.047-1.389-1.783-2.715-2.129-3.836
		C7.133,8.285,7.657,7.555,8.005,7.244l0.117-0.102l0.335-0.247c0.188-0.117,0.361-0.184,0.559-0.214
		c0.37-0.049,0.728,0.402,0.988,0.736l0.07,0.089c0.609,0.77,0.607,1.069,0.6,1.122c-0.017,0.094-0.279,0.315-0.421,0.435
		l-0.032,0.027c-0.001,0.001-0.001,0.004-0.003,0.005c-0.003,0.003-0.007,0.004-0.011,0.007L9.875,9.411
		c-0.006,0.006-0.008,0.014-0.014,0.02C9.858,9.434,9.853,9.434,9.85,9.437C9.789,9.504,9.737,9.571,9.694,9.643
		c-0.18,0.303-0.43,1.038-0.087,1.654c0.25,0.448,0.72,1.15,1.153,1.72c0.451,0.546,1.027,1.167,1.401,1.509
		c0.519,0.477,1.299,0.417,1.639,0.319c0.074-0.021,0.153-0.052,0.232-0.091c0.008-0.004,0.013-0.012,0.021-0.016
		c0.005-0.003,0.01-0.002,0.015-0.005l0.387-0.242c0.016-0.01,0.025-0.025,0.04-0.037l0.005,0.007
		c0.157-0.108,0.451-0.336,0.547-0.297c0.076,0.009,0.371,0.098,0.967,0.852l0.071,0.089c0.263,0.327,0.623,0.776,0.48,1.109
		c-0.075,0.177-0.182,0.323-0.344,0.473l-0.455,0.343C15.368,17.288,14.513,17.607,13.249,16.857z"/>
	<path d="M18.042,0.6H4C3.228,0.6,2.6,1.229,2.6,2v1.631H2c-0.772,0-1.4,0.629-1.4,1.4s0.628,1.4,1.4,1.4h0.6v4.199H2
		c-0.772,0-1.4,0.629-1.4,1.4s0.628,1.4,1.4,1.4h0.6v4.199H2c-0.772,0-1.4,0.629-1.4,1.4s0.628,1.4,1.4,1.4h0.6V22
		c0,0.771,0.628,1.4,1.4,1.4h14.042c0.772,0,1.4-0.629,1.4-1.4V2C19.442,1.229,18.814,0.6,18.042,0.6z M1.4,5.031
		c0-0.331,0.269-0.6,0.6-0.6h2c0.331,0,0.6,0.269,0.6,0.6s-0.269,0.6-0.6,0.6H2C1.669,5.631,1.4,5.362,1.4,5.031z M1.4,12.031
		c0-0.331,0.269-0.6,0.6-0.6h2c0.331,0,0.6,0.269,0.6,0.6s-0.269,0.6-0.6,0.6H3.005c-0.002,0-0.003-0.001-0.005-0.001
		s-0.003,0.001-0.005,0.001H2C1.669,12.631,1.4,12.362,1.4,12.031z M1.4,19.031c0-0.331,0.269-0.6,0.6-0.6h2
		c0.331,0,0.6,0.269,0.6,0.6s-0.269,0.6-0.6,0.6H2C1.669,19.631,1.4,19.362,1.4,19.031z M18.642,22c0,0.331-0.269,0.6-0.6,0.6H4
		c-0.331,0-0.6-0.269-0.6-0.6v-1.568H4c0.772,0,1.4-0.629,1.4-1.4s-0.628-1.4-1.4-1.4H3.4v-4.199H4c0.772,0,1.4-0.629,1.4-1.4
		s-0.628-1.4-1.4-1.4H3.4V6.432H4c0.772,0,1.4-0.629,1.4-1.4s-0.628-1.4-1.4-1.4H3.4V2c0-0.331,0.269-0.6,0.6-0.6h14.042
		c0.331,0,0.6,0.269,0.6,0.6V22z"/>
	<path d="M22,9.568c-0.772,0-1.4,0.629-1.4,1.4v2.063c0,0.771,0.628,1.4,1.4,1.4s1.4-0.629,1.4-1.4v-2.063
		C23.4,10.197,22.772,9.568,22,9.568z M22.6,13.031c0,0.331-0.269,0.6-0.6,0.6s-0.6-0.269-0.6-0.6v-2.063c0-0.331,0.269-0.6,0.6-0.6
		s0.6,0.269,0.6,0.6V13.031z"/>
	<path d="M22,3.537c-0.772,0-1.4,0.629-1.4,1.4V7c0,0.771,0.628,1.4,1.4,1.4s1.4-0.629,1.4-1.4V4.938
		C23.4,4.166,22.772,3.537,22,3.537z M22.6,7c0,0.331-0.269,0.6-0.6,0.6S21.4,7.331,21.4,7V4.938c0-0.331,0.269-0.6,0.6-0.6
		s0.6,0.269,0.6,0.6V7z"/>
	<path d="M22,15.6c-0.772,0-1.4,0.629-1.4,1.4v2.063c0,0.771,0.628,1.4,1.4,1.4s1.4-0.629,1.4-1.4V17
		C23.4,16.229,22.772,15.6,22,15.6z M22.6,19.063c0,0.331-0.269,0.6-0.6,0.6s-0.6-0.269-0.6-0.6V17c0-0.331,0.269-0.6,0.6-0.6
		s0.6,0.269,0.6,0.6V19.063z"/>
</g>
</svg>
