<?xml version="1.0"?>
<svg xmlns="http://www.w3.org/2000/svg" height="512px" viewBox="0 0 512 512" width="512px"><path d="m489.5 200.953125c-12.40625 0-22.5 10.09375-22.5 22.5v161.5h-12.101562c2.621093-7.28125.558593-12.914063.386718-15.085937 3.933594-.230469 7.054688-3.484376 7.054688-7.476563v-140c0-12.671875-6.324219-23.890625-15.976563-30.683594 6.722657-5.957031 10.972657-14.648437 10.972657-24.316406 0-17.921875-14.578126-32.5-32.5-32.5-17.921876 0-32.5 14.578125-32.5 32.5 0 9.664063 4.246093 18.351563 10.964843 24.308594-10.070312 7.101562-15.960937 18.394531-15.960937 30.691406v33.609375c0 4.140625 3.359375 7.5 7.5 7.5 4.144531 0 7.5-3.359375 7.5-7.5v-33.609375c0-6.011719 2.339844-11.660156 6.59375-15.90625 4.253906-4.253906 9.902344-6.59375 15.90625-6.59375 3.203125 0 6.25.675781 9.011718 1.886719-8.265624 2.289062-14.492187 8.964844-16.117187 17.449218l-14.628906 76.417969-.761719.507813v-8.152344c0-4.140625-3.359375-7.5-7.5-7.5-4.144531 0-7.5 3.359375-7.5 7.5v18.101562l-50.4375 33.449219c-5.390625 3.671875-8.652344 9.296875-9.546875 15.289063h-3.308594c-5.992187 0-11.84375 2.457031-16.046875 6.734375-4.183594 4.257812-6.535156 10.113281-6.453125 16.078125l-.140625 89.347656h-7.910156v-175.5h59.5c12.40625 0 22.5-10.09375 22.5-22.5s-10.09375-22.5-22.5-22.5h-194c-12.40625 0-22.5 10.09375-22.5 22.5s10.09375 22.5 22.5 22.5h59.5v175.5h-7.894531l-.15625-89.347656c.082031-5.964844-2.265625-11.820313-6.449219-16.078125-4.203125-4.277344-10.054688-6.734375-16.050781-6.734375h-3.445313c-.898437-6-4.183594-11.640625-9.617187-15.347656l-50.226563-33.308594v-83.792969c0-12.277344-5.875-23.574219-15.960937-30.691406 6.71875-5.957031 10.964843-14.644531 10.964843-24.308594 0-17.921875-14.578124-32.5-32.5-32.5-17.917968 0-32.5 14.578125-32.5 32.5 0 9.640625 4.226563 18.308594 10.914063 24.265625-9.179687 6.433594-15.304687 16.898438-15.855469 28.96875-.214844 1.667969-.0625 141.765625-.0625 141.765625 0 3.992187 3.121094 7.246094 7.054688 7.476563-.179688 2.238281-2.25 7.761718.386718 15.085937h-12.101562v-161.5c0-12.40625-10.09375-22.5-22.5-22.5s-22.5 10.09375-22.5 22.5v184c0 11.902344 9.289062 21.671875 21 22.445313v74.601562c0 4.140625 3.359375 7.5 7.5 7.5h98c4.140625 0 7.5-3.359375 7.5-7.5v-41.023438c0-4.140624-3.359375-7.5-7.5-7.5s-7.5 3.359376-7.5 7.5v33.523438h-83v-67.046875h83v1.796875c0 4.140625 3.359375 7.5 7.5 7.5s7.5-3.359375 7.5-7.5v-1.851562c11.710938-.773438 21-10.542969 21-22.445313 0-2.671875-.472656-5.234375-1.328125-7.613281h11.519531l.160156 89.339844c-.175781 12.527343 9.960938 22.820312 22.5 22.820312h136.320313c12.5 0 22.671875-10.261719 22.5-22.824219l.136719-89.335937h11.519531c-.855469 2.378906-1.328125 4.941406-1.328125 7.613281 0 12.410156 10.09375 22.5 22.5 22.5h2.710938v74.546875c0 4.140625 3.359374 7.5 7.5 7.5h98c4.140624 0 7.5-3.359375 7.5-7.5v-75.28125c9.648437-2.535156 16.789062-11.332031 16.789062-21.765625v-184c0-12.40625-10.09375-22.5-22.5-22.5zm-87.160156 149.140625 33.78125-22.449219c4.949218-3.375 8.296875-8.472656 9.421875-14.359375l1.796875-9.378906v50.984375h-45zm22.496094-200.203125c9.648437 0 17.5 7.847656 17.5 17.5 0 9.648437-7.851563 17.5-17.5 17.5-9.648438 0-17.5-7.851563-17.5-17.5 0-9.652344 7.851562-17.5 17.5-17.5zm16.40625 66.199219c4.0625.777344 6.734374 4.714844 5.957031 8.777344l-4.394531 22.964843-14.796876-2.496093 4.457032-23.289063c.785156-4.097656 4.730468-6.730469 8.777344-5.957031zm-95.96875 135.90625 68.75-45.59375c1.679687-1.113282 2.839843-2.859375 3.21875-4.839844l7.945312-41.488281 14.792969 2.496093-9.167969 47.894532c-.375 1.964844-1.492188 3.664062-3.066406 4.738281l-73.941406 49.132813c-3.414063 2.328124-8.089844 1.441406-10.421876-1.972657-2.328124-3.417969-1.445312-8.09375 1.890626-10.367187zm-193.773438-82.996094c0-4.136719 3.363281-7.5 7.5-7.5h194c4.136719 0 7.5 3.363281 7.5 7.5s-3.363281 7.5-7.5 7.5c-24.007812 0-170.574219 0-194 0-4.136719 0-7.5-3.363281-7.5-7.5zm127 22.5v178.179688c-7.054688 3.804687-11.859375 11.261718-11.859375 19.820312 0 2.628906.457031 5.152344 1.289063 7.5h-23.839844c.832031-2.347656 1.289062-4.871094 1.289062-7.5 0-8.566406-4.8125-16.03125-11.878906-19.828125v-178.171875zm-110.007812 70.859375c-2.335938 3.417969-7.011719 4.300781-10.5 1.925781l-73.789063-49.03125c-1.652344-1.125-2.765625-2.828125-3.144531-4.789062l-9.167969-47.898438 14.792969-2.496094 7.945312 41.492188c.378906 1.980469 1.539063 3.726562 3.21875 4.839844l15.109375 10.019531c.007813.003906.015625.011719.027344.015625l53.53125 35.503906c3.417969 2.328125 4.300781 7.003906 1.976563 10.417969zm-103.820313-137.492187c-.003906-.03125-.007813-.058594-.011719-.089844.035156-.101563-1.121094-7.328125 5.96875-8.6875 4.082032-.777344 8 1.894531 8.777344 5.957031l4.457031 23.289063-14.792969 2.496093zm-.011719 130.023437v-50.316406l1.667969 8.710937c1.125 5.886719 4.472656 10.984375 9.496094 14.410156l33.835937 22.484376v4.710937zm45-58.652344-.890625-.59375-14.632812-76.417969c-1.128907-5.902343-4.488281-11.011718-9.460938-14.386718-2.050781-1.390625-4.28125-2.398438-6.597656-3.042969 2.777344-1.21875 5.84375-1.90625 9.082031-1.90625 12.234375 0 22.5 9.882813 22.5 22.5zm-22.496094-146.347656c9.648438 0 17.5 7.847656 17.5 17.5 0 9.648437-7.851562 17.5-17.5 17.5-9.648437 0-17.5-7.851563-17.5-17.5 0-9.652344 7.851563-17.5 17.5-17.5zm45.335938 265.0625h-110c-4.136719 0-7.5-3.363281-7.5-7.5v-184c0-4.132813 3.363281-7.5 7.5-7.5s7.5 3.367187 7.5 7.5v169c0 4.144531 3.359375 7.5 7.5 7.5h95c4.136719 0 7.5 3.367187 7.5 7.5 0 4.136719-3.363281 7.5-7.5 7.5zm47.847656 74.40625c0-.046875.003906-.09375.003906-.140625l-.171874-96.890625c-.007813-4.136719-3.363282-7.488281-7.5-7.488281h-94.410157c-2.210937 0-4.300781-.972656-5.726562-2.65625-3.320313-3.9375-.941407-8.09375-.617188-12.292969.566407 0 66.757813-.050781 67.324219-.050781 8.183594 4.738281 12.925781 10.789062 23.003906 10.789062 7.449219 0 14.875-3.671875 19.222656-10.789062h6.472657c4.273437 0 7.574219 3.53125 7.5 7.628906v.144531l.171875 96.902344c.007812 4.136719 3.363281 7.484375 7.5 7.484375h19.757812c4.136719 0 7.5 3.367188 7.5 7.5 0 4.136719-3.363281 7.5-7.5 7.5h-35.027344c-4.105468 0-7.578124-3.359375-7.503906-7.640625zm158.972656-104.519531c-4.136718 0-7.496093 3.351562-7.5 7.488281l-.148437 96.890625v.140625c.074219 4.28125-3.398437 7.640625-7.5 7.640625h-35.03125c-4.136719 0-7.5-3.363281-7.5-7.5s3.363281-7.5 7.5-7.5h19.757813c4.140624 0 7.496093-3.351562 7.5-7.488281l.152343-96.898438c0-.046875 0-.097656 0-.144531-.074219-4.097656 3.226563-7.628906 7.5-7.628906h6.347657c.199218.324218.378906.660156.59375.976562 4.363281 6.390625 11.457031 9.824219 18.648437 9.824219 10.035156 0 14.707031-6.007813 22.980469-10.800781 1.070312 0 66.386718.050781 67.453125.050781l1.054687 6.195313c.773438 4.570312-2.75 8.753906-7.398437 8.753906zm140.890626 112.160156h-83v-67.046875h83zm16.789062-89.546875c0 4.136719-3.363281 7.5-7.5 7.5h-110c-4.136719 0-7.5-3.363281-7.5-7.5 0-4.132813 3.363281-7.5 7.5-7.5h95c4.140625 0 7.5-3.355469 7.5-7.5v-169c0-4.132813 3.363281-7.5 7.5-7.5s7.5 3.367187 7.5 7.5zm0 0" fill="#FFFFFF"/><path d="m164.839844 146.457031h19.679687c.859375 7.015625.164063 14.617188-5.910156 17.28125-3.625 1.59375-5.660156 5.429688-4.941406 9.324219.71875 3.890625 3.976562 6.75 7.929687 6.945312.703125.035157 1.527344.058594 2.449219.058594 10.871094 0 35.621094-3.410156 40.214844-33.609375h63.476562c4.984375 32.765625 33.699219 33.996094 42.664063 33.550781 3.953125-.195312 7.214844-3.050781 7.929687-6.945312.71875-3.894531-1.3125-7.726562-4.941406-9.320312-6.074219-2.667969-6.765625-10.265626-5.90625-17.285157h19.679687c25.832032 0 46.851563-20.863281 46.851563-46.507812v-53.441407c-.003906-25.644531-21.019531-46.507812-46.855469-46.507812h-123.160156c-4.140625 0-7.5 3.359375-7.5 7.5s3.359375 7.5 7.5 7.5h123.160156c17.566406 0 31.851563 14.132812 31.851563 31.507812v53.441407c0 17.375-14.289063 31.507812-31.851563 31.507812h-23.511718c-5.019532 0-9.355469 3.574219-10.308594 8.496094-1.644532 8.472656-1.445313 15.945313.472656 22.078125-.195312-.105469-.390625-.210938-.585938-.320312-6.554687-3.722657-10.160156-10.46875-11.027343-20.625-.464844-5.488282-4.960938-9.628907-10.457031-9.628907h-71.484376c-5.496093 0-9.992187 4.140625-10.457031 9.628907-.867187 10.152343-4.472656 16.898437-11.027343 20.625-.195313.109374-.390626.214843-.585938.320312 1.917969-6.132812 2.121094-13.605469.476562-22.078125-.957031-4.925781-5.292968-8.496094-10.3125-8.496094h-23.511718c-17.5625 0-31.851563-14.136719-31.851563-31.507812v-53.441407c0-17.375 14.289063-31.507812 31.851563-31.507812h27.035156c4.144531 0 7.5-3.359375 7.5-7.5s-3.355469-7.5-7.5-7.5h-27.035156c-25.835938 0-46.851563 20.863281-46.851563 46.507812v53.441407c0 25.644531 21.015625 46.507812 46.851563 46.507812zm0 0" fill="#FFFFFF"/><path d="m208.125 53.730469h131.191406c4.140625 0 7.5-3.359375 7.5-7.5 0-4.144531-3.359375-7.5-7.5-7.5h-131.191406c-4.144531 0-7.5 3.355469-7.5 7.5 0 4.140625 3.355469 7.5 7.5 7.5zm0 0" fill="#FFFFFF"/><path d="m346.816406 73.230469c0-4.144531-3.359375-7.5-7.5-7.5h-166.632812c-4.140625 0-7.5 3.355469-7.5 7.5 0 4.140625 3.359375 7.5 7.5 7.5h166.632812c4.140625 0 7.5-3.359375 7.5-7.5zm0 0" fill="#FFFFFF"/><path d="m172.683594 92.730469c-4.140625 0-7.5 3.355469-7.5 7.5 0 4.140625 3.359375 7.5 7.5 7.5h109.964844c4.140624 0 7.5-3.359375 7.5-7.5 0-4.144531-3.359376-7.5-7.5-7.5zm0 0" fill="#FFFFFF"/></svg>
