<?xml version="1.0"?>
<svg xmlns="http://www.w3.org/2000/svg" height="512px" viewBox="0 0 512 512.001" width="512px"><path d="m456.835938 0h-401.667969c-30.417969 0-55.167969 24.746094-55.167969 55.167969v321.332031c0 30.417969 24.75 55.167969 55.167969 55.167969h84.285156l-54.726563 54.726562c-5.855468 5.855469-5.855468 15.355469 0 21.210938 2.929688 2.929687 6.769532 4.394531 10.605469 4.394531 3.839844 0 7.679688-1.464844 10.609375-4.394531l75.9375-75.9375h148.242188l75.9375 75.9375c2.929687 2.929687 6.769531 4.394531 10.605468 4.394531 3.839844 0 7.679688-1.464844 10.609376-4.394531 5.855468-5.855469 5.855468-15.351563 0-21.210938l-54.730469-54.726562h84.289062c30.417969 0 55.164063-24.75 55.164063-55.167969v-321.332031c.003906-30.421875-24.742188-55.167969-55.160156-55.167969zm25.164062 376.5c0 13.878906-11.289062 25.167969-25.164062 25.167969h-401.667969c-13.878907 0-25.167969-11.289063-25.167969-25.167969v-321.332031c0-13.878907 11.289062-25.167969 25.167969-25.167969h401.667969c13.875 0 25.164062 11.289062 25.164062 25.167969zm0 0" fill="#FFFFFF"/><path d="m359.902344 202.84375-160.667969-92.761719c-4.644531-2.679687-10.359375-2.679687-15 0-4.640625 2.679688-7.5 7.632813-7.5 12.992188v185.519531c0 5.359375 2.859375 10.308594 7.5 12.992188 2.320313 1.339843 4.910156 2.007812 7.5 2.007812s5.179687-.667969 7.5-2.007812l160.667969-92.765626c4.640625-2.679687 7.5-7.628906 7.5-12.988281s-2.859375-10.3125-7.5-12.988281zm-153.167969 79.769531v-133.558593l115.667969 66.777343zm0 0" fill="#FFFFFF"/></svg>
