<?xml version="1.0"?>
<svg xmlns="http://www.w3.org/2000/svg" height="512px" viewBox="-16 0 512 512.001" width="512px"><g fill-rule="evenodd"><path d="m239.8125 211.375c42.992188 0 77.96875-34.976562 77.96875-77.96875s-34.976562-77.96875-77.96875-77.96875-77.96875 34.976562-77.96875 77.96875 34.976562 77.96875 77.96875 77.96875zm0-135.9375c31.964844 0 57.96875 26.003906 57.96875 57.96875s-26.003906 57.96875-57.96875 57.96875-57.96875-26.003906-57.96875-57.96875 26.003906-57.96875 57.96875-57.96875zm0 0" fill="#dbdbdb"/><path d="m473.359375 492.722656-206.796875-83.339844 138.09375-55.648437c5.121094-2.066406 7.601562-7.890625 5.539062-13.015625-2.066406-5.125-7.890624-7.601562-13.015624-5.535156l-136.636719 55.0625 101.238281-202.773438c.074219-.144531.144531-.292968.210938-.445312 7.449218-16.949219 11.226562-34.992188 11.226562-53.621094 0-73.558594-59.84375-133.40625-133.40625-133.40625s-133.40625 59.847656-133.40625 133.40625c0 18.628906 3.777344 36.671875 11.226562 53.621094.066407.152344.136719.300781.207032.445312l31.859375 63.8125c2.46875 4.941406 8.472656 6.949219 13.414062 4.480469 4.941407-2.464844 6.949219-8.472656 4.480469-13.414063l-31.746094-63.589843c-6.265625-14.335938-9.441406-29.59375-9.441406-45.355469 0-62.53125 50.875-113.40625 113.40625-113.40625s113.40625 50.875 113.40625 113.40625c0 15.761719-3.175781 31.019531-9.441406 45.355469l-103.964844 208.234375-36.476562-73.058594c-2.464844-4.941406-8.472657-6.945312-13.414063-4.480469-4.941406 2.46875-6.945313 8.472657-4.480469 13.414063l33.640625 67.378906-136.636719-55.066406c-5.121093-2.066406-10.949218.414062-13.011718 5.535156-2.066406 5.121094.414062 10.949219 5.535156 13.015625l138.089844 55.648437-206.792969 83.339844c-5.125 2.066406-7.601563 7.890625-5.539063 13.011719 1.574219 3.898437 5.320313 6.265625 9.28125 6.265625 1.242188 0 2.507813-.234375 3.734376-.726562l226.070312-91.105469 226.070312 91.105469c1.226563.496093 2.488282.726562 3.734376.726562 3.960937 0 7.707031-2.367188 9.277343-6.265625 2.066407-5.121094-.414062-10.945313-5.535156-13.011719zm0 0" fill="#dbdbdb"/><path d="m176.519531 292.609375c5.507813 0 10-4.492187 10-10s-4.492187-10-10-10c-5.507812 0-10 4.492187-10 10s4.492188 10 10 10zm0 0" fill="#dbdbdb"/></g></svg>
