<?xml version="1.0"?>
<svg xmlns="http://www.w3.org/2000/svg" viewBox="0 0 512 512" width="512px" height="512px"><path d="m436.949219 74.980469c-48.34375-48.351563-112.621094-74.980469-180.988281-74.980469-94.285157 0-180.671876 51.609375-225.453126 134.6875-1.964843 3.648438-.601562 8.195312 3.042969 10.160156 3.648438 1.964844 8.195313.605469 10.164063-3.042968 42.15625-78.214844 123.484375-126.804688 212.246094-126.804688 64.359374 0 124.871093 25.066406 170.382812 70.585938 45.511719 45.519531 70.574219 106.042968 70.574219 170.414062s-25.0625 124.894531-70.574219 170.414062c-45.511719 45.519532-106.023438 70.585938-170.382812 70.585938-64.363282 0-124.875-25.066406-170.386719-70.585938-45.511719-45.519531-70.574219-106.039062-70.574219-170.414062 0-28.832031 5.035156-57.027344 14.96875-83.808594 1.4375-3.882812-.542969-8.199218-4.425781-9.640625-3.882813-1.441406-8.199219.542969-9.640625 4.425781-10.550782 28.453126-15.902344 58.40625-15.902344 89.023438 0 68.378906 26.625 132.667969 74.96875 181.019531 48.34375 48.351563 112.621094 74.980469 180.992188 74.980469 68.367187 0 132.644531-26.628906 180.988281-74.980469 48.34375-48.351562 74.96875-112.640625 74.96875-181.019531s-26.625-132.667969-74.96875-181.019531zm0 0" fill="#666666"/><path d="m255.960938 367.753906h110.546874c14.117188 0 25.601563-11.488281 25.601563-25.609375v-143.917969c0-14.121093-11.484375-25.609374-25.601563-25.609374h-40.070312c-5.257812 0-9.972656-3.519532-11.46875-8.558594l-.507812-1.71875c-4.386719-14.796875-18.230469-25.128906-33.65625-25.128906h-49.808594c-15.546875 0-29.414063 10.433593-33.730469 25.371093l-.402344 1.394531c-1.46875 5.085938-6.191406 8.640626-11.488281 8.640626h-39.964844c-14.117187 0-25.601562 11.488281-25.601562 25.609374v143.917969c0 14.121094 11.484375 25.609375 25.601562 25.609375h76.457032c4.140624 0 7.5-3.359375 7.5-7.5 0-4.144531-3.359376-7.5-7.5-7.5h-76.457032c-5.84375 0-10.601562-4.757812-10.601562-10.609375v-143.917969c0-5.847656 4.757812-10.609374 10.601562-10.609374h39.964844c11.9375 0 22.589844-8.011719 25.902344-19.484376l.402344-1.390624c2.46875-8.558594 10.410156-14.53125 19.3125-14.53125h49.808593c8.835938 0 16.765625 5.917968 19.277344 14.390624l.507813 1.71875c3.371093 11.363282 14 19.296876 25.847656 19.296876h40.070312c5.847656 0 10.605469 4.761718 10.605469 10.609374v143.917969c0 5.851563-4.757813 10.609375-10.605469 10.609375h-110.546875c-4.140625 0-7.5 3.355469-7.5 7.5 0 4.140625 3.359375 7.5 7.503907 7.5zm0 0" fill="#666666"/><path d="m259.683594 221.398438c4.140625 0 7.5-3.355469 7.5-7.5 0-4.140626-3.359375-7.5-7.5-7.5-32.851563 0-59.574219 26.730468-59.574219 59.582031 0 32.855469 26.722656 59.582031 59.574219 59.582031 32.847656 0 59.570312-26.726562 59.570312-59.582031 0-19.949219-9.914062-38.480469-26.519531-49.574219-3.445313-2.300781-8.101563-1.375-10.402344 2.070312-2.300781 3.441407-1.375 8.101563 2.070313 10.402344 12.429687 8.304688 19.851562 22.175782 19.851562 37.101563 0 24.582031-19.996094 44.582031-44.570312 44.582031-24.578125 0-44.574219-20-44.574219-44.582031s19.996094-44.582031 44.574219-44.582031zm0 0" fill="#666666"/><path d="m363.335938 209.089844c0 4.160156-3.375 7.535156-7.539063 7.535156-4.160156 0-7.535156-3.375-7.535156-7.535156 0-4.164063 3.375-7.539063 7.535156-7.539063 4.164063 0 7.539063 3.375 7.539063 7.539063zm0 0" fill="#666666"/></svg>
