<?xml version="1.0" encoding="iso-8859-1"?>
<!-- Generator: Adobe Illustrator 19.0.0, SVG Export Plug-In . SVG Version: 6.00 Build 0)  -->
<svg xmlns="http://www.w3.org/2000/svg" xmlns:xlink="http://www.w3.org/1999/xlink" version="1.1" id="Capa_1" x="0px" y="0px" viewBox="0 0 512.002 512.002" style="enable-background:new 0 0 512.002 512.002;" xml:space="preserve" width="512px" height="512px">
<g>
	<g>
		<path d="M414.814,409.634c-1.984-11.87-9.932-23.691-21.262-31.62c-35.691-24.977-54.071-0.595-54.254-0.345    c-3.962,5.446-5.381,12.768-3.995,20.619c2.105,11.924,10.085,23.566,21.347,31.143c11.859,7.978,22.048,10.733,30.337,10.733    c12.621,0,20.835-6.393,23.801-10.466c0.001-0.001,0.001-0.001,0.002-0.002C414.714,424.302,416.106,417.365,414.814,409.634z     M398.722,420.787c-0.295,0.325-2.994,3.141-8.202,4.083c-7.105,1.285-15.92-1.44-25.497-7.883    c-7.83-5.269-13.559-13.432-14.948-21.305c-0.671-3.803-0.191-7.065,1.31-9.129c0.247-0.312,3.907-4.745,11.807-4.745    c5.279,0,12.452,1.98,21.762,8.495c7.979,5.585,13.753,13.939,15.067,21.805C400.616,415.676,400.155,418.752,398.722,420.787z" fill="#FFDA44"/>
	</g>
</g>
<g>
	<g>
		<path d="M172.704,378.085c-0.181-0.249-18.554-24.636-54.253,0.346c-11.329,7.928-19.278,19.749-21.262,31.62    c-1.292,7.729,0.1,14.667,4.025,20.062c2.967,4.075,11.175,10.468,23.8,10.467c8.288-0.001,18.482-2.758,30.339-10.734    c11.261-7.576,19.242-19.217,21.347-31.14C178.087,390.854,176.668,383.532,172.704,378.085z M146.98,417.4    c-22.329,15.922-33.083,4.487-33.698,3.804c-3.123-5.365-5.678-16.294,13.768-30.485c22.914-16.722,33.157-4.271,33.526-3.808    C162.12,389.032,165.942,403.88,146.98,417.4z" fill="#FFDA44"/>
	</g>
</g>
<g>
	<g>
		<path d="M486.351,176.733c6.543-5.806,12.965-11.774,19.157-17.809c6.132-5.976,8.1-14.68,5.138-22.716    c-2.985-8.096-10.19-13.479-18.806-14.05c-4.853-0.321-9.765-0.714-14.602-1.167c-4.12-0.39-7.78,2.643-8.166,6.767    c-0.387,4.124,2.644,7.78,6.768,8.166c4.972,0.467,10.021,0.87,15.01,1.2c3.945,0.262,5.378,3.336,5.723,4.272    c0.432,1.171,1.146,4.176-1.532,6.786c-7.711,7.514-15.792,14.929-24.016,22.038c-3.07,2.653-3.473,7.268-0.909,10.412    c6.948,8.52,14.274,16.989,21.778,25.17c2.718,2.964,1.49,6.201,1.048,7.122c-0.447,0.932-2.216,3.947-6.284,3.692    c-36.486-2.353-72.841-7.914-108.393-16.553c0,0,48.313-17.021,49.471-17.558l0.025-0.009l-0.001-0.003    c4.939-2.299,8.909-6.604,10.527-12.17l22.139-76.201c1.62-5.576,0.945-11.433-1.902-16.494    c-2.833-5.036-7.46-8.636-13.027-10.136c-48.43-13.049-98.366-21.101-148.423-23.933c-8.908-0.505-17.558,3.356-23.135,10.327    l-7.357,9.196c-6.173,7.713-6.173,18.489-0.001,26.205l10.57,13.212l-10.573,13.219c-6.171,7.715-6.171,18.489-0.001,26.202    l5.452,6.816l-15.934,36.07l-12.99-29.407c0.275-0.47,0.535-0.952,0.764-1.456c2.48-5.455,1.694-11.75-2.049-16.43l-6.955-8.693    l10.572-13.217c6.171-7.716,6.17-18.49-0.001-26.203l-10.572-13.215l6.036-7.545c3.919-4.897,4.598-11.421,1.771-17.024    c-2.824-5.599-8.474-8.945-14.729-8.684C173.538,45.032,119.265,53.285,66.628,67.46c-5.641,1.52-10.315,5.145-13.164,10.206    c-2.836,5.04-3.506,10.884-1.887,16.456l6.999,24.09c-12.743,1.77-25.626,3.1-38.413,3.946c-8.614,0.57-15.821,5.954-18.806,14.05    c-2.963,8.036-0.994,16.741,5.138,22.717c6.192,6.033,12.613,12.002,19.156,17.808c-5.367,6.408-10.929,12.753-16.596,18.932    c-5.942,6.479-7.245,15.758-3.523,23.737c6.388,13.692,20.306,12.213,20.779,12.183c45.579-2.939,90.963-10.76,134.893-23.243    c4.388-1.247,8.01-4.138,10.202-8.141c2.193-4.004,2.678-8.616,1.365-12.988l-5.419-18.035c8.41-1.242,16.845-2.307,25.295-3.195    c0.116,0.422,24.159,87.934,29.584,95.475l-18.397,41.646l-14.851,20.697c-7.661,10.568-21.245,16.426-36.326,15.679    c-16.4-0.824-33.579,4.228-48.388,14.207c-3.435,2.314-4.343,6.976-2.029,10.41c1.449,2.149,6.245,4.808,10.41,2.028    c12.175-8.124,26.086-12.32,39.259-11.666c20.17,1.007,38.566-7.164,49.238-21.884l11.773-16.407l15.614,6.898    c-7.641,21.725-34.376,92.761-65.356,117.683c-12.928,10.4-29.115,15.201-44.406,13.168c-12.008-1.596-22.096-7.248-28.404-15.916    c-10.025-13.777-9.106-34.097,2.343-51.768c2.252-3.477,1.26-8.119-2.216-10.371c-3.475-2.254-8.119-1.261-10.372,2.216    c-14.853,22.924-15.592,49.91-1.883,68.748c8.746,12.019,22.438,19.817,38.555,21.958c2.955,0.393,32.495,2.762,55.783-16.35    c37.581-30.84,67.698-116.964,71.932-129.687l11.665-13.546l11.307,13.13c4.234,12.724,35.376,97.641,71.932,129.688    c23.484,20.588,52.829,16.742,55.785,16.349c16.116-2.142,29.808-9.939,38.553-21.959c9.62-13.22,12.328-30.135,7.623-47.63    c-4.548-16.912-15.558-32.416-31.002-43.655c-15.43-11.228-33.547-16.938-51.037-16.062c-15.082,0.751-28.664-5.109-36.305-15.647    l-14.872-20.727l-18.591-42.086c10.547-19.752,29.897-94.602,29.897-94.602l0.006-0.018c8.401,0.885,16.798,1.944,25.174,3.182    l-5.423,18.05c-1.313,4.371-0.829,8.982,1.364,12.986c2.191,4.003,5.814,6.894,10.201,8.141    c43.93,12.483,89.316,20.305,134.896,23.243c0.473,0.03,14.377,1.449,20.779-12.183c3.743-7.969,2.419-17.26-3.523-23.737    C497.28,189.487,491.718,183.141,486.351,176.733z M278.288,125.088l9.347-11.685l-8.775,19.865    C278.86,133.267,274.413,129.762,278.288,125.088z M25.346,216.618c-4.057,0.262-5.838-2.76-6.284-3.692    c-0.441-0.922-1.67-4.159,1.048-7.123c7.503-8.181,14.83-16.649,21.778-25.17c2.564-3.146,2.162-7.76-0.909-10.412    c-8.224-7.109-16.304-14.523-24.015-22.037c-2.679-2.611-1.964-5.616-1.532-6.787c0.345-0.937,1.778-4.011,5.724-4.272    c13.868-0.918,27.848-2.382,41.651-4.356l10.913,37.563c2.005,6.901,7.614,11.878,14.21,13.474l45.809,16.259    C98.186,208.704,61.831,214.265,25.346,216.618z M158.31,192.869l-40.323-14.312c11.405-2.658,22.886-4.99,34.425-6.986    C152.412,171.572,159.198,189.057,158.31,192.869z M93.617,169.206c-3.601,0.958-5.188-2.006-5.495-3.061L65.981,89.937    c-0.485-1.67-0.288-3.416,0.556-4.916c0.857-1.522,2.274-2.616,3.992-3.078c51.554-13.884,104.709-21.968,157.99-24.025    c0.024-0.001,0.051-0.002,0.08-0.002c0.19,0-9.194,13.583-9.194,13.583c-2.191,2.739-2.191,6.632,0,9.37l14.32,17.9    c1.758,2.197,1.758,5.267,0,7.465l-14.319,17.901c-2.191,2.738-2.191,6.63,0,9.368c0,0,10.26,14.704,10.097,14.711    C183.69,150.168,138.014,157.389,93.617,169.206z M235.803,309.878l-15.532-6.861l11.127-25.189    c4.209,6.605,14.884,19.883,14.884,19.883L235.803,309.878z M310.875,332.19c10.65,14.689,29.051,22.863,49.216,21.853    c14.064-0.686,28.794,3.99,41.464,13.211c12.683,9.228,21.684,21.81,25.343,35.423c3.504,13.03,1.633,25.428-5.267,34.909    c-6.308,8.667-16.394,14.32-28.402,15.916c-15.295,2.031-31.478-2.766-44.407-13.167c-30.981-24.923-57.715-95.961-65.356-117.684    l15.614-6.898L310.875,332.19z M291.731,302.601l-15.532,6.861l-19.423-22.552c-9.471-10.997-17.265-23.29-23.168-36.547    l-25.723-85.788c7.413-0.591,14.832-1.058,22.256-1.375c0.004,0,0.007-0.001,0.011-0.001L291.731,302.601z M317.558,120.167    l-36.397,121.386l-16.869-38.187l45.702-103.459c0.973-2.201,1.659-1.952,2.388-1.692    C315.99,99.52,321.204,107.295,317.558,120.167z M323.86,151.372l0.001-0.004l8.079-26.945c0.01-0.033,0.02-0.066,0.029-0.1    c5.867-20.6-3.087-36.095-14.491-40.215c-8.717-3.146-17.24,0.764-21.205,9.738l-2.586,5.855    c-0.268-0.664-15.396-19.784-15.396-19.784c-1.758-2.198-1.759-5.269,0-7.466l7.357-9.196c2.551-3.188,6.506-4.958,10.576-4.723    c49.026,2.773,97.935,10.66,145.368,23.441c1.646,0.444,3.015,1.512,3.857,3.009c0.855,1.521,1.058,3.28,0.571,4.955    l-22.138,76.201c-0.309,1.063-2.28,3.921-5.522,3.061C387.4,160.981,355.695,154.872,323.86,151.372z M359.592,171.569    c11.543,1.999,23.034,4.328,34.436,6.984l-40.336,14.316C352.896,188.558,359.592,171.569,359.592,171.569z" fill="#FFDA44"/>
	</g>
</g>
<g>
	<g>
		<circle cx="256.005" cy="261.404" r="7.497" fill="#FFDA44"/>
	</g>
</g>
<g>
</g>
<g>
</g>
<g>
</g>
<g>
</g>
<g>
</g>
<g>
</g>
<g>
</g>
<g>
</g>
<g>
</g>
<g>
</g>
<g>
</g>
<g>
</g>
<g>
</g>
<g>
</g>
<g>
</g>
</svg>
