<?xml version="1.0"?>
<svg xmlns="http://www.w3.org/2000/svg" height="512px" version="1.1" viewBox="1 -1 598.701 598" width="512px">
<g id="surface1">
<path d="M 599 266.75 C 599 224.539062 547.085938 188.09375 466.789062 166.816406 L 429.042969 31.203125 C 423.460938 11.199219 403.554688 -1.257812 383.121094 2.460938 L 307.398438 16.667969 L 214.132812 0.695312 C 194.339844 -1.902344 175.660156 10.484375 170.347656 29.726562 L 146.90625 114.003906 L 116.804688 102.722656 C 106.476562 98.863281 94.972656 104.109375 91.113281 114.4375 C 90.277344 116.671875 89.851562 119.039062 89.851562 121.421875 L 89.851562 180.484375 C 34.171875 202.117188 0 232.539062 0 266.75 C 0 311.027344 56.035156 366.585938 134.574219 401.367188 L 111.753906 506.351562 L 79.867188 506.351562 C 35.777344 506.398438 0.0507812 542.128906 0 586.214844 C 0 591.730469 4.46875 596.199219 9.984375 596.199219 L 589.015625 596.199219 C 594.53125 596.199219 599 591.730469 599 586.214844 C 598.949219 542.128906 563.222656 506.398438 519.132812 506.351562 L 487.246094 506.351562 L 464.421875 401.367188 C 542.964844 366.582031 599 311.027344 599 266.75 Z M 160.191406 160.277344 C 159.941406 159.179688 159.785156 158.058594 159.734375 156.933594 L 159.734375 146.949219 C 159.734375 135.921875 168.671875 126.984375 179.699219 126.984375 C 190.726562 126.984375 199.667969 135.921875 199.667969 146.949219 L 199.667969 153.550781 C 186.011719 155.425781 172.851562 157.667969 160.191406 160.277344 Z M 211.40625 122.941406 L 243.8125 95.167969 L 257.050781 148.078125 C 244.285156 148.777344 231.8125 149.773438 219.632812 151.074219 L 219.632812 146.949219 C 219.59375 138.277344 216.703125 129.859375 211.40625 122.988281 Z M 277.425781 147.289062 L 271.957031 125.394531 C 303.679688 121.246094 335.835938 121.714844 367.425781 126.785156 C 403.214844 133.949219 428.734375 141.148438 439.855469 144.496094 L 444.578125 161.464844 C 396.863281 151.53125 348.234375 146.664062 299.5 146.949219 C 292.0625 146.949219 284.726562 147.089844 277.425781 147.289062 Z M 189.574219 35.078125 C 192.167969 25.566406 201.3125 19.371094 211.105469 20.492188 L 250.832031 27.269531 L 250.550781 27.320312 L 254.226562 46.945312 L 307.535156 36.964844 L 307.785156 36.964844 L 307.785156 36.902344 L 386.8125 22.089844 C 397.042969 20.234375 407 26.484375 409.777344 36.503906 L 433.535156 121.890625 C 419.628906 118.027344 398.472656 112.636719 371.320312 107.214844 C 336.828125 101.558594 301.679688 101.101562 267.054688 105.859375 L 263.167969 90.316406 C 260.496094 79.617188 249.660156 73.109375 238.960938 75.78125 C 235.949219 76.53125 233.160156 77.972656 230.804688 79.992188 L 195.472656 110.292969 C 190.492188 108.132812 185.125 107.019531 179.699219 107.015625 C 176.121094 107.066406 172.566406 107.601562 169.136719 108.613281 Z M 109.816406 121.421875 L 142.234375 133.582031 C 140.648438 137.863281 139.8125 142.386719 139.765625 146.949219 L 139.765625 156.933594 C 139.792969 159.539062 140.085938 162.132812 140.636719 164.679688 C 129.871094 167.34375 119.601562 170.25 109.816406 173.394531 Z M 19.96875 266.75 C 19.96875 218.542969 132.289062 166.917969 299.5 166.917969 C 466.710938 166.917969 579.035156 218.539062 579.035156 266.75 C 579.035156 297.539062 534.816406 347.40625 460.09375 381.46875 L 439.265625 285.648438 L 439.265625 268.347656 L 466.402344 276.335938 L 472.03125 257.1875 L 302.316406 207.269531 C 300.476562 206.730469 298.523438 206.730469 296.683594 207.269531 L 126.96875 257.1875 L 132.597656 276.335938 L 159.734375 268.347656 L 159.734375 285.648438 L 138.910156 381.488281 C 64.183594 347.40625 19.96875 297.539062 19.96875 266.75 Z M 439.265625 526.316406 L 439.265625 576.234375 L 419.300781 576.234375 L 419.300781 526.316406 Z M 399.332031 576.234375 L 199.667969 576.234375 L 199.667969 526.316406 L 229.617188 526.316406 C 235.128906 526.316406 239.597656 521.847656 239.597656 516.332031 L 239.597656 451.261719 L 262.882812 465.589844 C 285.316406 479.484375 313.683594 479.484375 336.117188 465.589844 L 359.402344 451.261719 L 359.402344 516.332031 C 359.402344 521.847656 363.871094 526.316406 369.382812 526.316406 L 399.332031 526.316406 Z M 179.699219 526.316406 L 179.699219 576.234375 L 159.734375 576.234375 L 159.734375 526.316406 Z M 357.535156 428.96875 L 325.667969 448.574219 C 309.636719 458.507812 289.363281 458.507812 273.332031 448.574219 L 241.464844 428.96875 C 203.207031 405.230469 179.867188 363.460938 179.699219 318.433594 L 179.699219 262.527344 L 299.5 227.285156 L 419.300781 262.527344 L 419.300781 318.484375 C 419.117188 363.492188 395.777344 405.238281 357.535156 428.96875 Z M 164.726562 356.550781 C 173.429688 389.097656 192.753906 417.808594 219.632812 438.125 L 219.632812 506.351562 L 132.191406 506.351562 Z M 79.867188 526.316406 L 139.765625 526.316406 L 139.765625 576.234375 L 20.796875 576.234375 C 25.707031 547.429688 50.648438 526.355469 79.867188 526.316406 Z M 578.203125 576.234375 L 459.234375 576.234375 L 459.234375 526.316406 L 519.132812 526.316406 C 548.351562 526.355469 573.296875 547.429688 578.203125 576.234375 Z M 379.367188 506.351562 L 379.367188 438.125 C 406.246094 417.808594 425.570312 389.097656 434.273438 356.550781 L 466.808594 506.351562 Z M 379.367188 506.351562 " style=" fill-rule:nonzero;fill-opacity:1;" stroke="#FFFFFF" fill="#FFFFFF"/>
<path d="M 283.246094 307.402344 L 266.746094 300.792969 C 242.769531 291.214844 215.613281 294.042969 194.125 308.359375 L 205.207031 324.972656 C 221.21875 314.296875 241.457031 312.1875 259.328125 319.332031 L 275.820312 325.933594 Z M 283.246094 307.402344 " style=" fill-rule:nonzero;fill-opacity:1;" stroke="#FFFFFF" fill="#FFFFFF"/>
<path d="M 404.875 308.359375 C 383.390625 294.03125 356.226562 291.203125 332.253906 300.804688 L 315.753906 307.402344 L 323.179688 325.933594 L 339.664062 319.34375 C 357.53125 312.179688 377.78125 314.285156 393.792969 324.972656 Z M 404.875 308.359375 " style=" fill-rule:nonzero;fill-opacity:1;" stroke="#FFFFFF" fill="#FFFFFF"/>
<path d="M 299.5 402.332031 L 271.546875 396.734375 L 267.554688 416.300781 L 295.578125 421.910156 C 312.945312 425.414062 330.511719 416.84375 338.4375 400.996094 L 320.566406 392.070312 C 316.660156 399.847656 308.03125 404.050781 299.5 402.332031 Z M 299.5 402.332031 " style=" fill-rule:nonzero;fill-opacity:1;" stroke="#FFFFFF" fill="#FFFFFF"/>
</g>
</svg>
